# xmcd CD database file
#
# Track frame offsets:
#	150
#	29860
#	46608
#	63507
#	86301
#	115326
#	136657
#	162170
#	188619
#	214852
#	236133
#	266826
#	285083
#	316796
#	336316
#
# Disc length: 4738 seconds
#
# Revision: 0
# Processed by: cddbd v1.5.2PL0 Copyright (c) Steve Scherf et al.
# Submitted via: CDex 1.70beta2
#
DISCID=cf12800f
DTITLE=Various ‎– Greatest Ever! Chillout  - Chilled Beats 
DYEAR=2008
DGENRE=New Age
TTITLE0=Groove Armada  At The River  
TTITLE1=I Monster  Daydream In Blue  
TTITLE2=Kinobe  Slip Into Something  
TTITLE3=Tricky  Aftermath  
TTITLE4=David Holmes  Rodney Yates  
TTITLE5=Roni Size and Reprazent*  Brown Paper Bag  
TTITLE6=MJ Cole  Sincere  
TTITLE7=Talvin Singh  Traveller  
TTITLE8=DJ Shadow  What Does Your Soul Look Like - Part 1 (Blue Sky Revisit)  
TTITLE9=Sarah Vaughan  Whatever Lola Wants (Gotan Project Mix) 
TTITLE10=Smoke City  Underwater Love 
TTITLE11=Nitin Sawhney  Mausam  
TTITLE12=Primal Scream  Loaded  
TTITLE13=Lamb  Gabriel  
TTITLE14=Olive  You're Not Alone  
EXTD=YEAR: 2008
EXTT0=
EXTT1=
EXTT2=
EXTT3=
EXTT4=
EXTT5=
EXTT6=
EXTT7=
EXTT8=
EXTT9=
EXTT10=
EXTT11=
EXTT12=
EXTT13=
EXTT14=
PLAYORDER=
